<svg xmlns="http://www.w3.org/2000/svg" viewBox="0 0 128.62556 128.62322">
  <g fill="#b31474">
    <path d="M5.62 80.39q-3.526-7.297-1.904-14.478 1.62-7.182 6.833-13.66 5.21-6.477 13.21-12.092 7.997-5.615 17.12-9.888Q50 26 59.547 23.335q9.548-2.663 17.913-3.185 8.365-.52 14.742 1.206 6.377 1.727 9.157 6.343.854 1.5.422 3.002-.432 1.5-1.72 2.945-1.29 1.446-3.222 2.675-1.933 1.23-4.025 2.19-2.093.963-4.077 1.495-1.985.533-3.38.53Q83 40.533 81.5 39.78t-2.25-1.612q-.748-.86-.8-1.664-.052-.804.485-1.018 1.716-.426 4.988-1.224 3.272-.798 6.383-1.972 3.112-1.174 5.098-2.725 1.987-1.552 1.025-3.698-.748-1.502-3.75-1.883-3.002-.38-6.755-.012-3.754.37-7.67 1.22-3.914.85-6.596 1.703-6.546 2.026-14.325 5.282-7.78 3.257-15.4 7.425-7.62 4.168-14.545 8.98-6.925 4.814-11.813 9.952-4.888 5.138-7.095 10.335-2.208 5.195-.5 10.13.96 2.683 3.37 4.08 2.41 1.4 5.68 1.834 3.27.435 7.13.013t7.562-1.54q3.7-1.12 7.028-2.777 3.327-1.656 5.69-3.582 1.935-3.213 4.14-6.372 2.203-3.16 4.46-5.836 2.256-2.677 4.51-4.87 2.257-2.195 4.296-3.478 1.074-.75 2.468-.907 1.394-.158 2.466.112 1.072.27 1.66.807.59.537.267.965-4.73 6.424-8.762 12.26-4.03 5.838-7.526 11.782-3.496 5.945-6.617 12.32-3.12 6.374-6.136 13.874-.324.75-1.074.427t-1.5-1.343q-.748-1.02-1.28-2.63-.534-1.608-.424-3.538.335-7.505 3.994-14.576-4.078 1.923-9.12 2.772-5.04.85-9.918.304-4.878-.545-8.842-2.696-3.963-2.152-5.886-6.016z" />
    <path d="M54.396 52.584q5.865 0 12.292-.113 6.428-.112 10.94-.563 1.804-.225 2.142.564.338.79-.338 2.03-.677 1.242-2.48 2.37-1.806 1.127-4.06 1.353-7.218 1.353-14.436 1.24-7.217-.113-11.05-.113-1.806 0-1.806-1.015t1.128-2.368q1.128-1.353 3.158-2.368 2.03-1.016 4.51-1.016z" />
    <path d="M36.757 93.352c1.88-4.538 3.99-9.15 6.332-13.835 2.34-4.68 4.912-9.134 7.715-13.357 2.802-4.218 5.87-7.643 9.205-10.268 1.206-.92 2.412-1.366 3.62-1.33 1.205.038 2.27.266 3.19.692.922.426 1.598.958 2.024 1.595.426.638.426 1.135 0 1.49-1.63 1.49-3.318 3.21-5.055 5.16-1.74 1.953-3.46 4.064-5.164 6.333-1.702 2.27-3.282 4.667-4.735 7.183-1.454 2.52-2.713 5.056-3.777 7.61 2.837-1.704 5.923-3.44 9.26-5.214 3.333-1.774 6.72-3.528 10.163-5.27 3.44-1.737 6.863-3.44 10.268-5.107 3.406-1.667 6.6-3.207 9.58-4.63 5.746-2.837 11.493-5.834 17.238-8.992 5.748-3.156 11.6-6.048 17.562-8.674.566-.284.903-.017 1.01.798.107.816-.017 1.88-.372 3.194-.357 1.312-.94 2.712-1.756 4.203-.818 1.49-1.864 2.767-3.14 3.83-1.774 1.49-4.15 2.98-7.132 4.47-2.978 1.49-6.35 3.05-10.108 4.683-3.763 1.634-7.806 3.3-12.132 5-4.328 1.704-8.71 3.497-13.143 5.376-4.433 1.88-8.8 3.85-13.09 5.907-4.293 2.06-8.284 4.223-11.972 6.492 2.554-.78 5.747-1.045 9.578-.797 3.83.25 7.93.833 12.29 1.754 4.366.922 8.85 2.074 13.464 3.458 4.612 1.385 8.993 2.805 13.14 4.258 4.154 1.455 7.895 2.857 11.23 4.203 3.336 1.348 5.924 2.483 7.77 3.404.497.285.868.586 1.117.905.25.318.265.55.055.69-.215.145-.71.16-1.49.054-.784-.105-1.955-.478-3.514-1.117-3.05-1.205-6.37-2.43-9.948-3.672-3.586-1.24-7.328-2.412-11.228-3.51-3.905-1.102-7.86-2.093-11.867-2.982-4.01-.885-7.928-1.578-11.76-2.076-3.83-.495-7.487-.76-10.96-.798-3.48-.036-6.637.23-9.474.797-.708.144-1.578 0-2.605-.424-1.03-.426-1.864-.92-2.502-1.49-.356.782-.78 1.686-1.276 2.714-.5 1.028-1.03 2.04-1.597 3.032-.568.994-1.135 1.897-1.703 2.713-.568.815-1.064 1.4-1.49 1.756-.638.568-1.436 1.028-2.394 1.382" />
  </g>
</svg>
