<svg xmlns="http://www.w3.org/2000/svg" viewBox="0 0 122.02561 88.663204">
  <g fill="#b31474">
    <path d="M2.415 60.36Q-1.11 53.064.51 45.883q1.622-7.18 6.834-13.66 5.212-6.477 13.21-12.092 7.998-5.615 17.12-9.888t18.67-6.936Q65.89.642 74.256.12q8.364-.52 14.74 1.207 6.378 1.727 9.158 6.342.855 1.502.423 3.002-.43 1.5-1.72 2.946-1.29 1.445-3.222 2.675-1.932 1.23-4.025 2.19-2.093.962-4.077 1.495-1.985.532-3.38.53-2.358-.004-3.858-.758-1.5-.753-2.248-1.612-.75-.86-.802-1.664-.052-.804.485-1.017 1.716-.426 4.988-1.225 3.272-.798 6.383-1.972 3.113-1.174 5.1-2.725 1.986-1.55 1.025-3.697-.748-1.503-3.75-1.884-3.002-.38-6.755-.012-3.754.37-7.67 1.22-3.914.85-6.596 1.704Q61.91 8.89 54.13 12.148q-7.78 3.256-15.4 7.425-7.62 4.168-14.545 8.98-6.925 4.813-11.813 9.952-4.888 5.138-7.095 10.334t-.5 10.13q.96 2.683 3.37 4.082 2.41 1.398 5.68 1.833 3.27.434 7.13.012t7.562-1.54q3.7-1.12 7.027-2.776 3.327-1.655 5.69-3.58 1.935-3.215 4.14-6.374 2.203-3.16 4.46-5.836 2.256-2.676 4.51-4.87 2.257-2.194 4.297-3.478 1.073-.748 2.467-.907 1.396-.158 2.467.112 1.072.27 1.66.807.59.537.267.966-4.73 6.425-8.76 12.26-4.032 5.838-7.527 11.783-3.496 5.945-6.616 12.32-3.12 6.373-6.136 13.874-.323.75-1.073.427t-1.498-1.343q-.75-1.02-1.282-2.63-.533-1.608-.422-3.538.335-7.505 3.993-14.575-4.077 1.922-9.118 2.77-5.04.85-9.92.305-4.877-.545-8.84-2.696-3.964-2.152-5.887-6.015z" />
    <path d="M51.192 32.554q5.864 0 12.292-.112 6.428-.113 10.938-.564 1.805-.226 2.143.564.338.79-.338 2.03-.677 1.24-2.48 2.368-1.806 1.127-4.06 1.353-7.218 1.353-14.436 1.24-7.216-.112-11.05-.112-1.805 0-1.805-1.014 0-1.015 1.128-2.368 1.128-1.354 3.158-2.37 2.03-1.014 4.512-1.014z" />
    <path d="M33.553 73.322c1.878-4.538 3.99-9.15 6.33-13.835 2.342-4.68 4.914-9.133 7.717-13.356 2.802-4.217 5.87-7.642 9.205-10.268 1.206-.92 2.412-1.365 3.62-1.33 1.205.038 2.27.266 3.19.692.922.426 1.598.958 2.024 1.595.425.64.425 1.135 0 1.49-1.632 1.49-3.32 3.21-5.056 5.16-1.74 1.953-3.46 4.065-5.162 6.334-1.703 2.27-3.283 4.666-4.736 7.182-1.455 2.52-2.713 5.056-3.778 7.61 2.837-1.703 5.923-3.44 9.26-5.214 3.333-1.774 6.72-3.528 10.163-5.27 3.442-1.736 6.864-3.44 10.27-5.106 3.406-1.668 6.6-3.208 9.578-4.63 5.747-2.837 11.494-5.835 17.24-8.993 5.747-3.155 11.6-6.048 17.56-8.673.567-.283.904-.016 1.01.798.108.817-.016 1.88-.37 3.194-.357 1.312-.942 2.712-1.756 4.203-.82 1.49-1.865 2.767-3.14 3.83-1.775 1.492-4.152 2.98-7.133 4.47-2.98 1.49-6.35 3.05-10.11 4.683-3.76 1.634-7.805 3.3-12.13 5.002-4.33 1.703-8.71 3.495-13.144 5.375-4.434 1.88-8.8 3.85-13.09 5.906-4.294 2.06-8.285 4.223-11.973 6.492 2.555-.78 5.747-1.045 9.578-.797 3.832.25 7.93.833 12.292 1.754 4.365.923 8.85 2.075 13.463 3.46 4.612 1.383 8.993 2.803 13.142 4.257 4.152 1.454 7.893 2.856 11.228 4.203 3.336 1.348 5.925 2.484 7.77 3.405.497.284.868.586 1.118.905.248.32.264.55.054.69-.215.145-.71.16-1.49.055-.784-.106-1.955-.478-3.514-1.118-3.05-1.205-6.37-2.43-9.948-3.672-3.586-1.24-7.328-2.412-11.228-3.51-3.905-1.1-7.86-2.093-11.867-2.982-4.01-.885-7.928-1.578-11.76-2.075-3.83-.496-7.487-.76-10.96-.8-3.478-.033-6.637.234-9.474.8-.71.144-1.58 0-2.606-.425-1.03-.426-1.864-.92-2.502-1.49-.356.783-.78 1.686-1.276 2.714-.498 1.028-1.03 2.04-1.597 3.033-.568.994-1.135 1.898-1.703 2.713-.568.816-1.064 1.402-1.49 1.757-.638.568-1.436 1.03-2.394 1.383" />
  </g>
</svg>
